<svg width="28" height="31" viewBox="0 0 28 31" fill="none" xmlns="http://www.w3.org/2000/svg">
<path fill-rule="evenodd" clip-rule="evenodd" d="M9.96403 29.6275C9.96262 29.44 9.96044 29.2086 9.95789 28.9389C9.95229 28.3446 9.94494 27.5648 9.94021 26.6623C4.25791 27.839 3.05948 24.0456 3.05948 24.0456C2.13002 21.7946 0.786901 21.1932 0.786901 21.1932C-1.06351 19.984 0.929895 20.0084 0.929895 20.0084C2.98118 20.1449 4.05874 22.0173 4.05874 22.0173C5.88021 24.9996 8.84052 24.1382 10.0083 23.6393C10.1922 22.3781 10.7182 21.5183 11.3021 21.0307C6.76541 20.5431 1.99724 18.8659 1.99724 11.3929C1.99724 9.26377 2.78882 7.52473 4.09959 6.1595C3.86978 5.66704 3.18035 3.68422 4.27834 0.997645C4.27834 0.997645 5.98915 0.474308 9.89595 2.99673C11.5302 2.56278 13.2665 2.34824 15.0029 2.33849C16.7392 2.34824 18.4756 2.56278 20.1098 2.99673C23.9911 0.474308 25.7019 0.997645 25.7019 0.997645C26.7999 3.68422 26.1104 5.66704 25.9062 6.1595C27.2084 7.52473 28 9.26377 28 11.3929C28 18.8854 23.225 20.535 18.6799 21.0145C19.3948 21.5996 20.0587 22.7958 20.0587 24.6226C20.0587 26.3711 20.0473 27.8891 20.0397 28.8914C20.0374 29.1908 20.0355 29.4442 20.0344 29.6439C18.4414 30.0646 16.7633 30.2895 15.0301 30.2895C13.2745 30.2895 11.5753 30.0588 9.96403 29.6275Z" fill="white"/>
</svg>
