<svg width="17" height="20" viewBox="0 0 17 20" fill="none" xmlns="http://www.w3.org/2000/svg">
<path fill-rule="evenodd" clip-rule="evenodd" d="M8.75299 19.8726C10.4158 19.0221 16.7079 15.4022 16.7079 9.32662C16.7079 4.71285 12.9677 0.972656 8.35396 0.972656C3.74019 0.972656 0 4.71285 0 9.32662C0 15.4022 6.29211 19.0221 7.95493 19.8726C8.20854 20.0023 8.49938 20.0023 8.75299 19.8726ZM8.35395 12.9066C10.3313 12.9066 11.9342 11.3037 11.9342 9.32636C11.9342 7.34903 10.3313 5.74609 8.35395 5.74609C6.37662 5.74609 4.77368 7.34903 4.77368 9.32636C4.77368 11.3037 6.37662 12.9066 8.35395 12.9066Z" fill="#7DBA28"/>
</svg>
